<?xml version="1.0" encoding="utf-8"?>
<!-- Generator: Adobe Illustrator 24.0.2, SVG Export Plug-In . SVG Version: 6.00 Build 0)  -->
<svg version="1.1" id="Layer_1" xmlns="http://www.w3.org/2000/svg" xmlns:xlink="http://www.w3.org/1999/xlink" x="0px" y="0px"
	 viewBox="0 0 612 191.3" style="enable-background:new 0 0 612 191.3;" xml:space="preserve">
<style type="text/css">
	.st0{fill:#010101;}
	.st1{fill:#FFFFFF;}
	.st2{fill:#F1F2F2;}
</style>
<path class="st0" d="M592.9,191.3H19.2C8.7,191.3,0,182.6,0,172.1v-153C0,8.6,8.7,0,19.2,0h573.8C603.4,0,612,8.6,612,19.1v153
	C612,182.6,603.4,191.3,592.9,191.3z"/>
<g>
	<g>
		<g>
			<path class="st1" d="M144.3,38.2c-31.6,0-57.5,24.4-60,55.3l32.2,13.3c2.7-1.9,6-3,9.6-3c0.3,0,0.6,0,0.9,0l14.3-20.8
				c0-0.1,0-0.2,0-0.3c0-12.5,10.2-22.7,22.7-22.7c12.5,0,22.7,10.2,22.7,22.7c0,12.5-10.2,22.7-22.7,22.7c-0.2,0-0.3,0-0.5,0
				l-20.5,14.6c0,0.3,0,0.5,0,0.8c0,9.4-7.6,17-17,17c-8.2,0-15.1-5.9-16.7-13.7l-23.1-9.5c7.1,25.3,30.3,43.8,57.9,43.8
				c33.2,0,60.2-26.9,60.2-60.2S177.5,38.2,144.3,38.2z"/>
			<path class="st1" d="M122,129.5l-7.4-3.1c1.3,2.7,3.6,5,6.6,6.3c6.5,2.7,14-0.4,16.7-6.9c1.3-3.2,1.3-6.6,0-9.8
				c-1.3-3.2-3.8-5.6-6.9-6.9c-3.1-1.3-6.5-1.3-9.4-0.1l7.6,3.2c4.8,2,7.1,7.5,5.1,12.3C132.3,129.3,126.8,131.5,122,129.5z"/>
			<path class="st1" d="M179.2,82.9c0-8.3-6.8-15.1-15.1-15.1S149,74.6,149,82.9c0,8.3,6.8,15.1,15.1,15.1S179.2,91.2,179.2,82.9z
				 M152.8,82.9c0-6.3,5.1-11.4,11.4-11.4c6.3,0,11.4,5.1,11.4,11.4c0,6.3-5.1,11.4-11.4,11.4C157.9,94.2,152.8,89.1,152.8,82.9z"/>
		</g>
		<g>
			<path class="st1" d="M268.7,79.4l-4,7.1c-3.1-2.2-7.3-3.5-11-3.5c-4.2,0-6.8,1.7-6.8,4.8c0,3.8,4.6,4.7,11.5,7.1
				c7.4,2.6,11.6,5.7,11.6,12.4c0,9.2-7.3,14.4-17.7,14.4c-5.1,0-11.2-1.3-15.9-4.2l2.9-7.9c3.8,2,8.4,3.2,12.5,3.2
				c5.5,0,8.1-2,8.1-5c0-3.4-4-4.5-10.4-6.6c-7.3-2.5-12.4-5.7-12.4-13.1c0-8.4,6.7-13.3,16.5-13.3C260.2,75,265.6,77.1,268.7,79.4z
				"/>
			<path class="st1" d="M300.2,83.9v37.2h-9.5V83.9h-13.8v-8.1h37v8.1H300.2z"/>
			<path class="st1" d="M333.9,83.9v10.2h18.2v8.1h-18.2v10.6H355v8.2h-30.6V75.7H355v8.1H333.9z"/>
			<path class="st1" d="M376.2,112.3l-3,8.8h-9.9l17-45.3h9.6l17.5,45.3H397l-3.1-8.8H376.2z M384.9,86.6l-6.2,18.1h12.5L384.9,86.6
				z"/>
			<path class="st1" d="M456,93.3l-12.4,26.5h-5.4L426,93.5v27.6h-9.1V75.7h9.1l15.2,32.7l14.7-32.7h9.1v45.3H456L456,93.3L456,93.3
				z"/>
			<path class="st1" d="M483.4,81.5c0,3.9-2.9,6.3-6.3,6.3c-3.4,0-6.3-2.4-6.3-6.3c0-3.9,2.9-6.3,6.3-6.3
				C480.5,75.2,483.4,77.6,483.4,81.5z M471.9,81.5c0,3.3,2.3,5.3,5.2,5.3c2.9,0,5.2-2,5.2-5.3c0-3.3-2.3-5.3-5.2-5.3
				C474.3,76.2,471.9,78.2,471.9,81.5z M477.2,78.2c1.6,0,2.2,0.9,2.2,1.8c0,0.9-0.5,1.4-1.1,1.7l1.5,2.7h-1.2l-1.2-2.4H476v2.4h-1
				v-6.2H477.2z M476,81.1h1.1c0.7,0,1.1-0.4,1.1-1c0-0.6-0.3-0.9-1.1-0.9H476L476,81.1L476,81.1z"/>
		</g>
	</g>
	<g>
		<path class="st2" d="M260.1,50c-0.6,1.5-1.5,2.8-2.7,3.9c-1.1,1.1-2.5,1.9-4.1,2.6c-1.6,0.6-3.3,0.9-5.2,0.9h-8.4V33.1h8.4
			c1.9,0,3.6,0.3,5.2,0.9s2.9,1.5,4.1,2.5c1.1,1.1,2,2.4,2.7,3.8c0.6,1.5,0.9,3.1,0.9,4.8C261,46.9,260.7,48.5,260.1,50z
			 M257.5,41.5c-0.5-1.2-1.1-2.2-2-3.1c-0.9-0.9-1.9-1.5-3.2-2c-1.2-0.5-2.6-0.7-4.2-0.7h-5.7v19.2h5.7c1.5,0,2.9-0.2,4.2-0.7
			s2.3-1.2,3.2-2c0.9-0.9,1.5-1.9,2-3c0.5-1.2,0.7-2.4,0.7-3.8C258.2,43.9,257.9,42.7,257.5,41.5z"/>
		<path class="st2" d="M289.6,50c-0.6,1.5-1.4,2.8-2.5,4c-1.1,1.2-2.4,2.1-3.9,2.8s-3.2,1-5.1,1s-3.5-0.3-5-1s-2.8-1.6-3.9-2.7
			s-1.9-2.5-2.5-4c-0.6-1.5-0.9-3.1-0.9-4.8c0-1.7,0.3-3.3,0.9-4.8c0.6-1.5,1.4-2.8,2.5-4c1.1-1.2,2.4-2.1,3.9-2.8
			c1.5-0.7,3.2-1,5.1-1s3.5,0.3,5,1c1.5,0.7,2.8,1.6,3.9,2.7c1.1,1.1,1.9,2.5,2.5,4c0.6,1.5,0.9,3.1,0.9,4.8
			C290.5,46.9,290.2,48.5,289.6,50z M286.9,41.3c-0.5-1.2-1.1-2.3-2-3.2c-0.9-0.9-1.9-1.6-3-2.1c-1.2-0.5-2.4-0.8-3.8-0.8
			c-1.4,0-2.7,0.3-3.8,0.8c-1.2,0.5-2.2,1.2-3,2.1c-0.8,0.9-1.5,2-2,3.2c-0.5,1.2-0.7,2.5-0.7,3.9c0,1.4,0.2,2.7,0.7,3.9
			s1.1,2.3,2,3.2c0.9,0.9,1.9,1.6,3,2.1c1.2,0.5,2.4,0.8,3.8,0.8s2.7-0.3,3.8-0.8c1.2-0.5,2.2-1.2,3-2.1s1.5-2,2-3.2
			s0.7-2.5,0.7-3.9C287.6,43.9,287.4,42.6,286.9,41.3z"/>
		<path class="st2" d="M311,33h2.3l6.7,20.3l6.9-20.2h2.9L321,57.5h-2.3L312,37.8l-6.7,19.7h-2.3l-8.7-24.4h3l6.9,20.2L311,33z"/>
		<path class="st2" d="M352.5,33.1h2.7v24.3H353l-15.7-19.9v19.9h-2.7V33.1h2.6l15.3,19.4L352.5,33.1L352.5,33.1z"/>
		<path class="st2" d="M362,33.1h2.7v21.7h13.7v2.5H362L362,33.1L362,33.1z"/>
		<path class="st2" d="M406.2,50c-0.6,1.5-1.4,2.8-2.5,4c-1.1,1.2-2.4,2.1-3.9,2.8c-1.5,0.7-3.2,1-5.1,1c-1.9,0-3.5-0.3-5-1
			s-2.8-1.6-3.9-2.7c-1.1-1.1-1.9-2.5-2.5-4c-0.6-1.5-0.9-3.1-0.9-4.8c0-1.7,0.3-3.3,0.9-4.8c0.6-1.5,1.4-2.8,2.5-4
			c1.1-1.2,2.4-2.1,3.9-2.8c1.5-0.7,3.2-1,5.1-1c1.9,0,3.5,0.3,5,1c1.5,0.7,2.8,1.6,3.9,2.7c1.1,1.1,1.9,2.5,2.5,4
			c0.6,1.5,0.9,3.1,0.9,4.8C407.1,46.9,406.9,48.5,406.2,50z M403.6,41.3c-0.5-1.2-1.1-2.3-2-3.2c-0.9-0.9-1.9-1.6-3-2.1
			c-1.2-0.5-2.4-0.8-3.8-0.8s-2.7,0.3-3.8,0.8c-1.2,0.5-2.2,1.2-3,2.1s-1.5,2-2,3.2c-0.5,1.2-0.7,2.5-0.7,3.9c0,1.4,0.2,2.7,0.7,3.9
			c0.5,1.2,1.1,2.3,2,3.2c0.9,0.9,1.9,1.6,3,2.1c1.2,0.5,2.4,0.8,3.8,0.8c1.4,0,2.7-0.3,3.8-0.8s2.2-1.2,3-2.1s1.5-2,2-3.2
			c0.5-1.2,0.7-2.5,0.7-3.9C404.3,43.9,404.1,42.6,403.6,41.3z"/>
		<path class="st2" d="M435.5,57.4h-2.9l-2.8-6.4h-13.2l-2.9,6.4h-2.8l11.1-24.4h2.6L435.5,57.4z M423.2,36.1l-5.5,12.4h11.1
			L423.2,36.1z"/>
		<path class="st2" d="M460.7,50c-0.6,1.5-1.5,2.8-2.6,3.9c-1.1,1.1-2.5,1.9-4.1,2.6c-1.6,0.6-3.3,0.9-5.2,0.9h-8.4V33.1h8.4
			c1.9,0,3.6,0.3,5.2,0.9c1.6,0.6,2.9,1.5,4.1,2.5c1.1,1.1,2,2.4,2.6,3.8c0.6,1.5,0.9,3.1,0.9,4.8C461.6,46.9,461.3,48.5,460.7,50z
			 M458.1,41.5c-0.5-1.2-1.1-2.2-2-3.1c-0.9-0.9-1.9-1.5-3.2-2c-1.2-0.5-2.6-0.7-4.2-0.7h-5.7v19.2h5.7c1.5,0,2.9-0.2,4.2-0.7
			c1.2-0.5,2.3-1.2,3.2-2c0.9-0.9,1.5-1.9,2-3c0.5-1.2,0.7-2.4,0.7-3.8C458.8,43.9,458.6,42.7,458.1,41.5z"/>
		<path class="st2" d="M500.6,50c-0.6,1.5-1.4,2.8-2.5,4c-1.1,1.2-2.4,2.1-3.9,2.8c-1.5,0.7-3.2,1-5.1,1c-1.9,0-3.5-0.3-5-1
			s-2.8-1.6-3.9-2.7c-1.1-1.1-1.9-2.5-2.5-4c-0.6-1.5-0.9-3.1-0.9-4.8c0-1.7,0.3-3.3,0.9-4.8c0.6-1.5,1.4-2.8,2.5-4
			c1.1-1.2,2.4-2.1,3.9-2.8c1.5-0.7,3.2-1,5.1-1c1.9,0,3.5,0.3,5,1c1.5,0.7,2.8,1.6,3.9,2.7c1.1,1.1,1.9,2.5,2.5,4
			c0.6,1.5,0.9,3.1,0.9,4.8C501.5,46.9,501.2,48.5,500.6,50z M497.9,41.3c-0.5-1.2-1.1-2.3-2-3.2c-0.9-0.9-1.9-1.6-3-2.1
			c-1.2-0.5-2.4-0.8-3.8-0.8s-2.7,0.3-3.8,0.8c-1.2,0.5-2.2,1.2-3,2.1s-1.5,2-2,3.2c-0.5,1.2-0.7,2.5-0.7,3.9c0,1.4,0.2,2.7,0.7,3.9
			c0.5,1.2,1.1,2.3,2,3.2c0.9,0.9,1.9,1.6,3,2.1c1.2,0.5,2.4,0.8,3.8,0.8c1.4,0,2.7-0.3,3.8-0.8s2.2-1.2,3-2.1s1.5-2,2-3.2
			c0.5-1.2,0.7-2.5,0.7-3.9C498.6,43.9,498.4,42.6,497.9,41.3z"/>
		<path class="st2" d="M525.1,33.1h2.7v24.3h-2.2l-15.7-19.9v19.9h-2.7V33.1h2.6l15.3,19.4L525.1,33.1L525.1,33.1z"/>
	</g>
</g>
</svg>
